<svg width="122" height="26" viewBox="0 0 122 26" fill="none" xmlns="http://www.w3.org/2000/svg">
<path d="M121.012 12.5913C121.012 14.701 120.578 19.4563 115.802 22.7046C114.566 23.5418 113.364 24.1111 111.961 24.5129C110.592 24.9148 108.521 25.3166 105.181 25.3166C100.171 25.3166 97.1323 24.2115 95.2283 23.073C94.5943 22.7046 93.4253 21.9345 92.2563 20.528C89.751 17.4806 89.6508 14.3997 89.6508 12.8927C89.6508 6.93195 92.8233 3.95155 94.7613 2.64555C96.7653 1.27255 99.6373 0.06698 104.914 0C105.983 0 107.018 -4.09782e-07 108.087 0.10047C114.332 0.60275 117.238 3.08085 118.875 5.42505C119.643 6.56355 121.012 9.00815 121.012 12.5913ZM112.328 12.6583C112.328 9.64445 111.059 7.73565 110.191 6.96545C109.857 6.63055 109.055 6.02775 107.92 5.62595C107.319 5.42505 106.684 5.25755 105.415 5.25755C104.313 5.25755 103.411 5.35805 102.376 5.79335C99.6033 6.96545 98.3343 9.81185 98.3343 12.6918C98.3343 13.1271 98.3683 14.3327 98.8023 15.5717C100.205 19.7912 104.012 20.0926 105.448 20.0926C105.849 20.0926 107.352 20.0926 108.621 19.5233C111.26 18.3512 112.328 15.3373 112.328 12.6583Z" fill="currentColor"/>
<path d="M87.339 12.9596C87.339 14.0312 87.2388 17.8823 84.8341 20.6953C84.4333 21.1976 83.5983 22.0348 82.1956 22.8385C81.6946 23.1064 80.6258 23.6757 79.1897 24.044C77.9873 24.3454 77.1189 24.5129 74.7476 24.5129H59.7849V0.870605H73.1779C74.113 0.870605 75.0482 0.904005 75.9834 0.971005C81.4608 1.43981 83.8655 3.75051 85.2683 5.79321C87.2722 8.67321 87.339 11.6871 87.339 12.9596ZM79.0895 12.7587C79.0895 12.022 78.9893 9.3764 76.9185 7.769C75.1484 6.4295 72.6435 6.49651 72.0757 6.49651H68.0344V19.1548H72.3429C72.8105 19.1548 73.3115 19.1213 73.8124 19.0544C76.7181 18.686 77.7535 17.38 78.3213 16.1744C79.0561 14.6675 79.0895 13.3949 79.0895 12.7587Z" fill="currentColor"/>
<path d="M55.7615 24.5129H30.5787V0.870605H55.4609V6.16161H39.0286V10.0462H54.2252V15.3707H39.0286V19.1548H55.7615V24.5129Z" fill="currentColor"/>
<path d="M27.1533 24.5129H17.835L12.9588 15.9065H8.48333V24.5129H0V0.870605H17.3674C20.5403 0.870605 23.5796 1.10501 25.4834 4.11891C25.9176 4.82211 26.6857 6.22861 26.6857 8.37181C26.6857 9.47691 26.4519 12.6247 23.4794 14.2656C22.9117 14.6005 22.4775 14.7679 21.2751 15.0693L27.1533 24.5129ZM18.2692 8.40531C18.2692 8.20441 18.2358 7.66861 17.9018 7.19971C17.334 6.36251 16.3989 6.22861 15.4971 6.22861H8.48333V10.582H14.8291C16.4323 10.582 17.2672 10.3811 17.8016 9.74481C18.2358 9.20901 18.2692 8.67321 18.2692 8.40531Z" fill="currentColor"/>
</svg>